<?xml version="1.0" encoding="UTF-8" standalone="no"?>
<svg
   width="64"
   height="64"
   version="1.1"
   id="svg834"
   sodipodi:docname="perforce-icon.svg"
   inkscape:version="1.1.1 (3bf5ae0d25, 2021-09-20)"
   xmlns:inkscape="http://www.inkscape.org/namespaces/inkscape"
   xmlns:sodipodi="http://sodipodi.sourceforge.net/DTD/sodipodi-0.dtd"
   xmlns="http://www.w3.org/2000/svg"
   xmlns:svg="http://www.w3.org/2000/svg">
  <defs
     id="defs838" />
  <sodipodi:namedview
     id="namedview836"
     pagecolor="#ffffff"
     bordercolor="#666666"
     borderopacity="1.0"
     inkscape:pageshadow="2"
     inkscape:pageopacity="0.0"
     inkscape:pagecheckerboard="0"
     showgrid="false"
     inkscape:zoom="12.515625"
     inkscape:cx="32"
     inkscape:cy="32"
     inkscape:window-width="1920"
     inkscape:window-height="1009"
     inkscape:window-x="-8"
     inkscape:window-y="468"
     inkscape:window-maximized="1"
     inkscape:current-layer="svg834" />
  <path
     d="M9.977 23.348a23.33 23.33 0 0 1 1.527-3.251l-1.898-1.724C17.003 9.513 26.648 6.85 35.18 8.4c1.746.24 3.49.655 5.215 1.287C52.615 14.227 58.8 27.7 54.208 39.78c-.458 1.2-1.026 2.357-1.637 3.426.676.59 2.16 1.68 2.073 1.768-8.205 9.7-19.137 11.958-28.236 9.252-.873-.218-1.746-.48-2.62-.786C11.59 48.9 5.394 35.437 9.977 23.348zm41.678-20.73l-4.32 4.08c-1.44-.807-2.99-1.55-4.604-2.138C28.852-.6 14.232 5.237 6.18 16.082 1.968 22.3-.52 29.96.092 37.837c0 0 .022 14.816 13.704 23.545l3.47-4.757c1.527.873 3.142 1.658 4.844 2.29C37.82 64.742 55.233 57.3 60.93 42.3c0 0 4.168-9.143 2.793-19.137 0 0-1.07-13.485-12.067-20.555z"
     fill="#ffffff"
     id="path832"
     style="fill:#ffffff" />
</svg>
